<svg version="1.1" viewBox="0.0 0.0 960.0 720.0" fill="none" stroke="none" stroke-linecap="square" stroke-miterlimit="10" xmlns:xlink="http://www.w3.org/1999/xlink" xmlns="http://www.w3.org/2000/svg"><clipPath id="p.0"><path d="m0 0l960.0 0l0 720.0l-960.0 0l0 -720.0z" clip-rule="nonzero"/></clipPath><g clip-path="url(#p.0)"><path fill="#000000" fill-opacity="0.0" d="m0 0l960.0 0l0 720.0l-960.0 0z" fill-rule="evenodd"/><path fill="#ffffff" d="m230.7223 418.38058l-124.59897 -122.248474l0 -43.200348l168.62993 165.44882z" fill-rule="evenodd"/><path fill="#ffffff" d="m106.123344 252.92651l168.62991 0l0 31.307068l-168.62991 0z" fill-rule="evenodd"/><path fill="#ffffff" d="m274.75235 252.93175l0 96.47243l-31.307068 0l0 -96.47243z" fill-rule="evenodd"/><path fill="#ffffff" d="m344.04776 419.14566l127.81052 -122.993164l0 -43.463516l-172.97638 166.45668z" fill-rule="evenodd"/><path fill="#00ff00" d="m621.40314 389.2762l0 28.56308l27.838562 0l0 -28.56308z" fill-rule="evenodd"/><path fill="#00ff00" d="m621.3878 389.24637l-30.34668 0.17889404l-27.967896 28.927216l85.965515 -0.5067444z" fill-rule="evenodd"/><path fill="#00ff00" d="m649.01025 389.2056l0 29.025574l8.440918 0l0 -29.025574z" fill-rule="evenodd"/><path fill="#ffffff" d="m243.4865 349.45587l-31.086609 -31.086609l61.92125 0.25198364z" fill-rule="evenodd"/><path fill="#ffffff" d="m542.53723 418.8832l127.81055 -122.993195l0 -43.4635l-172.97638 166.4567z" fill-rule="evenodd"/><path fill="#ffffff" d="m670.3478 387.57742l-134.96063 0l0 31.307098l134.96063 0z" fill-rule="evenodd"/><path fill="#ffffff" d="m695.8642 294.59564l122.993164 127.81052l43.4635 0l-166.45667 -172.97636z" fill-rule="evenodd"/><path fill="#ffffff" d="m727.1699 422.40616l0 -134.96063l-31.307068 0l0 134.96063z" fill-rule="evenodd"/><path fill="#ffffff" d="m497.20206 284.15747l109.60629 0l0 -31.307083l-109.60629 0z" fill-rule="evenodd"/><path fill="#ffffff" d="m606.81757 284.23343l-31.40155 -31.401566l62.677124 0.12597656z" fill-rule="evenodd"/><path fill="#ffffff" d="m830.48645 249.44894l0 109.60629l31.307129 0l0 -109.60629z" fill-rule="evenodd"/><path fill="#ffffff" d="m830.4105 359.06445l31.40155 -31.40158l-0.12597656 62.677185z" fill-rule="evenodd"/><path fill="#ffffff" d="m351.74777 340.42752l-48.408264 -47.723877l21.455841 -21.17862l48.408264 47.723877z" fill-rule="evenodd"/><path fill="#ffffff" d="m303.16803 292.83896l43.83972 0.5463867l-44.418335 -43.619125z" fill-rule="evenodd"/></g></svg>